<?xml version="1.0" encoding="UTF-8"?> <svg xmlns="http://www.w3.org/2000/svg" width="20" height="20" viewBox="0 0 20 20" fill="none"><path fill-rule="evenodd" clip-rule="evenodd" d="M3.9178 5.66762C4.04336 5.41446 4.2332 5.19875 4.46831 5.04211L6.14264 3.92089C6.26184 3.8415 6.39643 3.78812 6.53762 3.76425C6.67882 3.74038 6.82346 3.74655 6.96212 3.78235C7.10077 3.81816 7.23033 3.88279 7.34235 3.97205C7.45437 4.06131 7.54634 4.17318 7.61226 4.30038L8.98491 6.96544C9.09895 7.18066 9.13187 7.42973 9.07768 7.66721C9.02348 7.9047 8.88578 8.11479 8.68969 8.25915L8.10141 8.69039C8.07073 8.71255 8.0492 8.74516 8.04086 8.78209C8.03253 8.81902 8.03797 8.85772 8.05616 8.89092C8.41685 9.52509 8.86436 10.1057 9.38571 10.6159C9.89556 11.1376 10.4758 11.5854 11.1096 11.9462C11.1428 11.9644 11.1815 11.9699 11.2184 11.9615C11.2553 11.9532 11.2879 11.9317 11.31 11.901L11.741 11.3102C11.8853 11.114 12.0952 10.9762 12.3326 10.9219C12.5699 10.8677 12.8188 10.9007 13.0339 11.0148L15.6995 12.3969C15.8264 12.4624 15.9382 12.5538 16.0277 12.6652C16.1171 12.7766 16.1823 12.9056 16.2188 13.0437C16.254 13.1831 16.2593 13.3284 16.2344 13.4699C16.2095 13.6115 16.155 13.7462 16.0744 13.8653L14.9582 15.5406C14.8109 15.7586 14.6125 15.9372 14.3804 16.0608C14.1483 16.1845 13.8895 16.2494 13.6265 16.25H13.5188C13.0421 16.2278 12.5684 16.1636 12.103 16.0581C10.3489 15.6075 8.54316 14.5143 7.01967 12.9877C5.49618 11.4611 4.39935 9.65637 3.94467 7.90122C3.83923 7.43558 3.77505 6.96154 3.75289 6.48461C3.73537 6.20252 3.79224 5.92079 3.9178 5.66762ZM6.66843 4.71038C6.67664 4.70499 6.68589 4.70136 6.69558 4.69972C6.70543 4.69805 6.71552 4.69848 6.7252 4.70098C6.73487 4.70348 6.74391 4.70799 6.75172 4.71422C6.75941 4.72034 6.76574 4.72799 6.77033 4.73669L8.14211 7.40006L8.14722 7.40984C8.15472 7.424 8.15689 7.44039 8.15332 7.45602C8.14979 7.47153 8.14084 7.48526 8.1281 7.49475L7.54259 7.92396C7.32653 8.08144 7.17491 8.3121 7.11601 8.57312C7.05674 8.83573 7.09543 9.11096 7.22478 9.34703L7.2284 9.35363L7.23212 9.36017C7.63477 10.0681 8.13394 10.7165 8.71524 11.2868C9.2851 11.8684 9.93313 12.3679 10.6407 12.7708L10.6472 12.7745L10.6538 12.7781C10.8897 12.9076 11.1648 12.9463 11.4272 12.887C11.6884 12.828 11.9192 12.6759 12.0766 12.4593L12.5047 11.8724C12.5142 11.8598 12.5282 11.8504 12.5436 11.8469C12.5592 11.8433 12.5756 11.8455 12.5898 11.853L12.5977 11.8571L15.2632 13.2392L15.265 13.2401C15.2741 13.2448 15.2821 13.2514 15.2885 13.2594C15.2938 13.2659 15.2979 13.2733 15.3006 13.2812C15.302 13.2893 15.302 13.2975 15.3006 13.3056C15.2988 13.3155 15.295 13.3249 15.2894 13.3332L15.2855 13.339L14.1714 15.0112C14.1109 15.1 14.0297 15.1729 13.9349 15.2234C13.8395 15.2742 13.7333 15.3009 13.6253 15.3013H13.5415C13.1322 15.281 12.7255 15.2256 12.3257 15.1358C10.77 14.733 9.11378 13.7434 7.69058 12.3173C6.26601 10.8898 5.27282 9.23399 4.86616 7.67731C4.77495 7.27068 4.71935 6.85686 4.70001 6.44055L4.69966 6.43315L4.69921 6.42577C4.69199 6.30962 4.71541 6.19361 4.76711 6.08936C4.81881 5.98512 4.89698 5.8963 4.99379 5.8318L4.99564 5.83056L6.66843 4.71038Z" fill="black"></path></svg> 