<?xml version="1.0" encoding="UTF-8"?> <svg xmlns="http://www.w3.org/2000/svg" width="22" height="22" viewBox="0 0 22 22" fill="none"><g clip-path="url(#clip0_17492_38399)"><path d="M14.4213 9.58008C12.5063 9.58008 10.9484 11.138 10.9484 13.053C10.9484 14.9679 12.5063 16.5258 14.4213 16.5258C16.3363 16.5258 17.8943 14.9679 17.8943 13.053C17.8943 11.138 16.3363 9.58008 14.4213 9.58008ZM14.4213 15.0542C13.3178 15.0542 12.42 14.1565 12.42 13.053C12.42 11.9495 13.3178 11.0516 14.4213 11.0516C15.5249 11.0516 16.4227 11.9494 16.4227 13.053C16.4227 14.1565 15.5249 15.0542 14.4213 15.0542Z" fill="#101010" fill-opacity="0.9"></path><path d="M5.52584 6.84277C3.98821 6.84277 2.73724 8.09374 2.73724 9.63137C2.73724 11.169 3.98821 12.42 5.52584 12.42C7.06354 12.42 8.31443 11.1689 8.31443 9.63137C8.31443 8.09374 7.06347 6.84277 5.52584 6.84277ZM5.52584 10.9485C4.79961 10.9485 4.20887 10.3577 4.20887 9.63145C4.20887 8.90522 4.79961 8.31441 5.52584 8.31441C6.25206 8.31441 6.84287 8.9053 6.84287 9.63145C6.84287 10.3577 6.25198 10.9485 5.52584 10.9485Z" fill="#101010" fill-opacity="0.9"></path><path d="M21.2651 16.5248C21.6714 16.5248 22.0009 16.1954 22.0009 15.789V2.10339C22.0009 1.6971 21.6714 1.36761 21.2651 1.36761C20.9162 1.36761 20.6323 1.08384 20.6323 0.734874C20.6323 0.328579 20.3029 -0.000976562 19.8965 -0.000976562H8.94804C8.54175 -0.000976562 8.21227 0.328505 8.21227 0.734874C8.21227 1.83843 7.31449 2.73621 6.21093 2.73621C5.10745 2.73621 4.20967 1.83843 4.20967 0.734874C4.20967 0.328579 3.88019 -0.000902489 3.4739 -0.000902489H0.736785C0.33034 -0.000902489 0.00100708 0.328579 0.00100708 0.734949V21.2633C0.00100708 21.6696 0.33034 21.9991 0.736785 21.9991H5.20953C5.21012 21.9991 5.21071 21.9991 5.21101 21.9991C5.61738 21.9991 5.94686 21.6697 5.94686 21.2633C5.94686 21.1153 5.90315 20.9774 5.82797 20.862C5.66456 20.5669 5.57834 20.2332 5.57834 19.8948C5.57834 18.7912 6.47612 17.8934 7.57975 17.8934C8.68323 17.8934 9.58108 18.7912 9.58108 19.8948C9.58108 20.2457 9.48834 20.5915 9.31293 20.8948C9.18123 21.1224 9.18108 21.403 9.31241 21.6309C9.44375 21.8586 9.68678 21.9991 9.94975 21.9991H21.2653C21.6716 21.9991 22.0011 21.6697 22.0011 21.2633V18.5262C22.0011 18.1199 21.6717 17.7903 21.2653 17.7903C20.9164 17.7903 20.6326 17.5066 20.6326 17.1576C20.6323 16.8087 20.9162 16.5248 21.2651 16.5248ZM13.6866 2.10339C13.6866 2.45235 13.4027 2.73621 13.0538 2.73621C12.7049 2.73621 12.421 2.45235 12.421 2.10339C12.421 1.7545 12.7049 1.47065 13.0538 1.47065C13.4027 1.47065 13.6866 1.7545 13.6866 2.10339ZM20.5294 15.186C19.7309 15.4849 19.1608 16.256 19.1608 17.1576C19.1608 18.0592 19.7308 18.8303 20.5294 19.1292V20.5274H10.9942C11.0328 20.3194 11.0524 20.1076 11.0524 19.8948C11.0524 17.9798 9.49449 16.4218 7.57952 16.4218C5.66449 16.4218 4.10656 17.9797 4.10656 19.8948C4.10656 20.1076 4.12627 20.3194 4.16486 20.5274H1.47249V1.47065H2.81656C3.15493 3.03354 4.54841 4.20783 6.21101 4.20783C7.8736 4.20783 9.26708 3.03346 9.60538 1.47065H11.0468C10.9837 1.6705 10.9494 1.88302 10.9494 2.10339C10.9494 3.26376 11.8935 4.20783 13.0538 4.20783C14.2141 4.20783 15.1581 3.26376 15.1581 2.10339C15.1581 1.88302 15.1239 1.6705 15.0608 1.47065H19.2936C19.5068 2.04013 19.96 2.49332 20.5294 2.7065V15.186H20.5294Z" fill="#101010" fill-opacity="0.9"></path></g><defs><clipPath id="clip0_17492_38399"><rect width="22" height="22" fill="white"></rect></clipPath></defs></svg> 