<?xml version="1.0" encoding="UTF-8"?> <svg xmlns="http://www.w3.org/2000/svg" width="20" height="20" viewBox="0 0 20 20" fill="none"><path d="M18.9474 11.1579C18.6707 9.96561 17.5993 9.07327 16.3255 9.07327C16.194 9.07327 16.0637 9.08258 15.9351 9.10135C15.4912 8.19452 14.5662 7.59958 13.5187 7.59958C12.7585 7.59958 12.0514 7.9133 11.5472 8.45758C11.2787 8.37 10.9962 8.32468 10.7118 8.32468C10.6375 8.32468 10.5641 8.32849 10.4913 8.33444L9.02756 5.54468L9.02985 4.52051H9.53415V1H3.30307V4.52051H3.83408V5.54437L2.32529 8.42767V10.7258C1.79657 10.8019 1.29868 11.0539 0.896301 11.4553C0.326691 12.0239 0 12.8387 0 13.6907C0 16.1863 1.38702 17.5692 2.13226 18.3122C2.1814 18.3611 2.22809 18.4078 2.27173 18.4521C2.72995 18.9169 3.19748 19.1427 3.70071 19.1427C3.83652 19.1427 3.97308 19.1168 4.1069 19.0655C4.47357 18.9251 4.87289 18.9189 5.23178 19.0479C5.40665 19.1108 5.58929 19.1427 5.77469 19.1427C6.15707 19.1427 6.52496 19.0132 6.85822 18.7654C7.01263 18.869 7.17026 18.9678 7.33017 19.0605L7.46658 19.1393H15.641L15.7774 19.0605C17.0378 18.3312 18.0951 17.2827 18.8347 16.0278C19.597 14.7344 20 13.2534 20 11.7446V11.1579H18.9474ZM9.47311 13.5858C9.4603 13.1373 9.36615 12.7125 9.19754 12.3315H18.8026C18.7677 12.7578 18.6951 13.1774 18.5875 13.5858H9.47311ZM11.4482 9.68851L11.9351 9.9595L12.2308 9.48709C12.5107 9.04001 12.9921 8.77313 13.5187 8.77313C14.2249 8.77313 14.8322 9.2518 14.9956 9.93738L15.1514 10.5909L15.778 10.3484C15.9526 10.281 16.1368 10.2467 16.3257 10.2467C16.9461 10.2467 17.4815 10.6222 17.7167 11.1579H9.19983C9.19556 11.1112 9.19342 11.0641 9.19342 11.0166C9.19342 10.1794 9.87457 9.49823 10.7118 9.49823C10.9698 9.49823 11.2244 9.564 11.4482 9.68851V9.68851ZM4.47662 2.17355H8.3606V3.34695H4.47662V2.17355ZM5.00763 5.83276V4.52051H7.85645L7.85355 5.83246L9.3544 8.69348C8.55728 9.16101 8.02032 10.0265 8.01987 11.0154C7.6506 10.8103 7.23755 10.7011 6.81061 10.7011C6.80908 10.7011 6.80725 10.7011 6.80573 10.7011C6.25916 10.7021 5.74921 10.8616 5.32455 11.1334V10.9486C5.32455 10.2729 5.87433 9.72314 6.54999 9.72314V8.54959C5.2272 8.54959 4.151 9.62579 4.151 10.9486V11.1334C3.95096 11.0053 3.73184 10.9025 3.49884 10.8293V8.71606L5.00763 5.83276ZM5.77469 17.9691C5.72495 17.9691 5.67596 17.9606 5.62881 17.9437C5.32913 17.8358 5.01389 17.7821 4.69757 17.7821C4.35684 17.7821 4.01459 17.8445 3.68881 17.969C3.51883 17.964 3.3284 17.8524 3.10745 17.6281C3.06152 17.5816 3.01239 17.5326 2.96066 17.481C2.24899 16.7715 1.17355 15.6992 1.17355 13.6907C1.17355 13.148 1.37466 12.636 1.72531 12.286C1.9136 12.0982 2.22916 11.8745 2.66495 11.8745H2.66739C3.44879 11.8762 4.09744 12.427 4.151 13.131V13.1654H5.3244V13.131C5.37796 12.427 6.02661 11.8762 6.80801 11.8745H6.81076C7.17041 11.8745 7.50153 12.0155 7.76871 12.2819C8.11249 12.6251 8.30185 13.1254 8.30185 13.6907C8.30185 15.5839 7.42828 16.5051 6.65756 17.3177C6.54984 17.4313 6.44821 17.5385 6.35025 17.647C6.2175 17.794 6.00998 17.9691 5.77469 17.9691V17.9691ZM15.3227 17.9658H7.78519C7.75864 17.9498 7.73239 17.9328 7.70599 17.9164C8.36548 17.2103 9.13696 16.2803 9.39011 14.7592H18.168C17.5694 16.0699 16.5874 17.1978 15.3227 17.9658V17.9658Z" fill="black"></path></svg> 