<?xml version="1.0" encoding="UTF-8"?> <svg xmlns="http://www.w3.org/2000/svg" width="22" height="22" viewBox="0 0 22 22" fill="none"><g clip-path="url(#clip0_17492_38405)"><path d="M21.8164 8.12785C21.6131 7.62045 21.2314 7.20067 20.7394 6.92919C20.6171 4.976 20.0039 2.57593 18.0654 0.679259C17.624 0.24763 17.0632 0 16.5268 0C16.088 0 15.6941 0.170296 15.4177 0.479482C15.1835 0.741482 14.9244 1.23119 15.0194 2.07682C15.19 3.59133 15.1447 4.69111 14.8684 5.43519C14.0074 5.65 13.2418 6.21348 12.8405 6.97193L12.2573 8.07341C12.0487 8.46756 11.9387 8.90015 11.9186 9.33652C11.5707 9.48541 11.2547 9.6943 10.9928 9.95622L9.77714 11.1718C9.54958 11.3995 9.36499 11.6614 9.22432 11.9441C8.80981 11.9751 8.41069 12.0866 8.05855 12.273L6.95714 12.8563C6.17499 13.2705 5.62773 14.0274 5.41766 14.8683C5.00603 15.0144 4.44951 15.1076 3.69025 15.1076C3.22788 15.1076 2.70558 15.0742 2.09373 15.0053C1.9721 14.9916 1.85344 14.9847 1.74084 14.9847C0.642917 14.9847 0.251954 15.6319 0.134917 15.9101C-0.140861 16.5655 0.084695 17.4259 0.696102 18.0511C2.57773 19.9748 4.97232 20.585 6.89225 20.7156C7.30899 21.5075 8.09025 22 8.98032 22C9.3824 22 9.79255 21.8954 10.1664 21.6974L13.5185 19.9224C13.7157 19.9763 13.9206 20.0051 14.13 20.0051C14.7685 20.0051 15.3839 19.7416 15.862 19.2631L19.0828 16.0418C19.6071 15.5176 19.8747 14.8167 19.8168 14.1189C19.8074 14.0046 19.7886 13.892 19.7623 13.781C19.804 13.7165 19.8441 13.6503 19.8808 13.5809L21.6805 10.1812C22.0271 9.5263 22.0768 8.7777 21.8164 8.12785ZM16.4435 5.45274C16.7743 4.13089 16.6109 2.67363 16.5247 1.90748C16.4995 1.68415 16.5225 1.56585 16.5386 1.51489C16.6497 1.52015 16.8385 1.59793 17.0061 1.76193C18.3891 3.11519 18.9562 4.82926 19.1512 6.35296L16.4435 5.45274ZM6.32855 19.1378C4.83232 18.9392 3.12973 18.373 1.77892 16.9922C1.59781 16.8068 1.53558 16.6116 1.53121 16.5242C1.56795 16.5127 1.63595 16.4993 1.74084 16.4993C1.79699 16.4993 1.85862 16.5031 1.92418 16.5105C2.59299 16.5858 3.17055 16.6224 3.69025 16.6224C4.33988 16.6224 4.91929 16.5587 5.43129 16.4353L6.32855 19.1378ZM8.89766 13.5524C8.92906 14.121 9.10973 14.6811 9.44773 15.1543L12.1474 18.9345L9.45751 20.3589C9.29892 20.4429 9.13847 20.4854 8.98025 20.4854C8.60062 20.4854 8.29351 20.2434 8.15847 19.8382L6.90832 16.0869C6.68321 15.4119 7.03736 14.5278 7.66603 14.1949L8.89766 13.5524ZM18.0118 14.9707L14.7909 18.1922C14.5959 18.3874 14.3673 18.4904 14.1299 18.4904C13.8472 18.4904 13.5866 18.3435 13.3961 18.0767L10.6804 14.2741C10.2669 13.695 10.3455 12.7456 10.8483 12.2426L12.064 11.027C12.3372 10.7537 12.7613 10.5905 13.1981 10.5905C13.5337 10.5905 13.852 10.6859 14.0945 10.859L17.8965 13.5753C18.1402 13.7495 18.2862 13.9868 18.3074 14.2437C18.3287 14.5007 18.2237 14.759 18.0118 14.9707ZM18.8094 12.3674L14.9749 9.62667C14.5507 9.32348 14.0289 9.13719 13.482 9.08896L14.1791 7.68037C14.4368 7.19348 15.0331 6.85341 15.6291 6.85341C15.7844 6.85341 15.9328 6.87659 16.0703 6.92245L19.8213 8.17296C20.1053 8.2677 20.3145 8.4517 20.4104 8.69104C20.5063 8.93037 20.482 9.20793 20.3418 9.47267L18.8094 12.3674Z" fill="#101010" fill-opacity="0.9"></path></g><defs><clipPath id="clip0_17492_38405"><rect width="22" height="22" fill="white"></rect></clipPath></defs></svg> 