<?xml version="1.0" encoding="UTF-8"?> <svg xmlns="http://www.w3.org/2000/svg" width="22" height="22" viewBox="0 0 22 22" fill="none"><g clip-path="url(#clip0_17492_38397)"><path d="M7.67273 6.85073C8.01303 6.85073 8.28891 6.57485 8.28891 6.23455C8.28891 5.89425 8.01303 5.61837 7.67273 5.61837C7.33243 5.61837 7.05655 5.89425 7.05655 6.23455C7.05655 6.57485 7.33243 6.85073 7.67273 6.85073Z" fill="#101010" fill-opacity="0.9"></path><path fill-rule="evenodd" clip-rule="evenodd" d="M1.63727 4.15202C0.905026 3.87214 0.384979 3.16298 0.384979 2.33237C0.384979 1.2569 1.25687 0.38501 2.33234 0.38501H8.49417C8.88905 0.38501 9.20917 0.705126 9.20917 1.10001C9.20917 1.49489 8.88905 1.81501 8.49417 1.81501H2.33234C2.04663 1.81501 1.81498 2.04666 1.81498 2.33237C1.81498 2.61809 2.04663 2.84974 2.33234 2.84974L12.8896 2.84985C15.8698 2.84985 18.7624 4.43196 20.3138 6.99042C21.1383 8.32306 21.6147 9.89433 21.6147 11.5751C21.6147 12.594 21.4409 13.5694 21.1178 14.4835C20.4022 16.5076 18.9525 18.1683 17.0928 19.2229C15.8455 19.9097 14.4124 20.3007 12.8897 20.3007H11.7747C11.5526 20.4322 11.1458 20.6615 10.64 20.8927C9.89839 21.2317 8.8586 21.6147 7.87803 21.6147C7.35391 21.6147 6.91287 21.4929 6.55463 21.2735C6.19807 21.0551 5.96347 20.7645 5.81225 20.4866C5.63219 20.1558 5.51801 19.7622 5.51991 19.3828C5.5249 19.0066 5.63326 18.6223 5.81225 18.2934C5.88734 18.1555 5.98298 18.0143 6.1039 17.8805C5.98298 17.7466 5.88734 17.6055 5.81225 17.4675C5.63277 17.1378 5.51888 16.7458 5.51989 16.3676C5.52235 15.9907 5.6331 15.6035 5.81225 15.2743C5.96347 14.9965 6.19807 14.7058 6.55463 14.4875C6.91287 14.268 7.35391 14.1463 7.87803 14.1463C8.8586 14.1463 9.89839 14.5292 10.64 14.8683C11.1469 15.1 11.5543 15.3298 11.7762 15.4611H13.28C14.0618 15.4615 14.7682 14.8945 14.9312 14.1247C15.1236 13.0863 14.3506 12.0848 13.2799 12.0848H10.1373C5.62924 12.0848 1.93891 8.58362 1.63727 4.15202ZM14.9203 11.1209L18.7759 7.26538C17.4474 5.45402 15.3055 4.27985 12.8896 4.27985H3.08295C3.43912 7.8365 6.42378 10.6184 10.0657 10.6545C11.8419 10.6457 13.3249 9.18839 13.3249 7.40253C13.3249 7.00765 13.645 6.68753 14.0399 6.68753C14.4347 6.68753 14.7549 7.00765 14.7549 7.40253C14.7549 8.66853 14.2535 9.81645 13.4383 10.6588C13.9802 10.686 14.4859 10.8518 14.9203 11.1209ZM19.5247 8.53926L15.9316 12.1323C16.1868 12.5442 16.3491 13.0202 16.3884 13.5302H19.9194C20.0921 12.9085 20.1847 12.253 20.1847 11.5751C20.1847 10.4909 19.9484 9.4632 19.5247 8.53926ZM12.2902 16.8911V18.8707H12.8897C13.8185 18.8707 14.7056 18.6973 15.5216 18.3814L13.957 16.8168C13.414 16.9377 12.8422 16.8911 12.2902 16.8911ZM16.8593 17.6966L15.3054 16.1427C15.6775 15.8246 15.9739 15.4204 16.1635 14.9602H19.3533C18.7698 16.072 17.9076 17.0152 16.8593 17.6966ZM6.95027 16.3709C6.96816 16.6253 7.07606 16.8969 7.30154 17.035C7.4028 17.097 7.57176 17.1622 7.85568 17.1655L10.8601 17.1654V16.5835C9.9648 16.0801 8.92156 15.5763 7.87803 15.5763C7.58058 15.5763 7.40543 15.6433 7.30154 15.7069C7.07606 15.845 6.96816 16.1165 6.95027 16.3709ZM7.85566 18.5955L10.8601 18.5956V19.1774C9.9648 19.6809 8.92156 20.1847 7.87803 20.1847C7.58058 20.1847 7.40543 20.1177 7.30154 20.0541C7.07606 19.916 6.96816 19.6444 6.95027 19.39C6.96815 19.1356 7.07606 18.8641 7.30154 18.726C7.4028 18.664 7.57175 18.5988 7.85566 18.5955Z" fill="#101010" fill-opacity="0.9"></path></g><defs><clipPath id="clip0_17492_38397"><rect width="22" height="22" fill="white"></rect></clipPath></defs></svg> 