<?xml version="1.0" encoding="UTF-8"?> <svg xmlns="http://www.w3.org/2000/svg" width="22" height="22" viewBox="0 0 22 22" fill="none"><g clip-path="url(#clip0_17492_38393)"><path d="M6.90197 10.3528C4.82068 10.3528 3.12746 12.0461 3.12746 14.1274C3.12746 16.2086 4.82068 17.9019 6.90197 17.9019C8.98326 17.9019 10.6765 16.2086 10.6765 14.1274C10.6765 12.0461 8.98326 10.3528 6.90197 10.3528ZM6.90197 16.6077C5.53426 16.6077 4.42158 15.4951 4.42158 14.1274C4.42158 12.7596 5.53426 11.647 6.90197 11.647C8.26968 11.647 9.38236 12.7596 9.38236 14.1274C9.38236 15.4951 8.26968 16.6077 6.90197 16.6077Z" fill="#101010" fill-opacity="0.9"></path><path d="M14.451 7.22536C13.4272 7.22536 12.4404 7.40775 11.5114 7.7679C10.9653 6.85382 10.6765 5.81154 10.6765 4.74497C10.6765 2.66368 8.98325 0.970459 6.90196 0.970459C4.82067 0.970459 3.12745 2.66368 3.12745 4.74497C3.12745 5.85122 2.81755 6.93173 2.23132 7.86975L1.16712 9.57246C0.403549 10.7941 0 12.2013 0 13.6419V13.7506C0 15.3603 0.494569 16.9036 1.43017 18.2134C2.68965 19.9766 4.73518 21.0293 6.90196 21.0293C8.18202 21.0293 9.41967 20.6617 10.478 19.9974C11.67 20.6732 13.0372 21.0293 14.451 21.0293C18.6135 21.0293 22 17.9331 22 14.1273C22 10.3215 18.6135 7.22536 14.451 7.22536ZM2.48324 17.4612C1.7053 16.3721 1.29412 15.089 1.29412 13.7506V13.6419C1.29412 12.4441 1.62968 11.2741 2.26449 10.2583L3.32869 8.55558C4.04364 7.41171 4.42157 6.094 4.42157 4.74497C4.42157 3.37726 5.53425 2.26458 6.90196 2.26458C8.26967 2.26458 9.38235 3.37726 9.38235 4.74497C9.38235 6.094 9.76028 7.41171 10.4752 8.55563L11.5394 10.2583C12.1742 11.2741 12.5098 12.4441 12.5098 13.6419V13.7506C12.5098 15.089 12.0986 16.3721 11.3207 17.4612C10.3036 18.8851 8.65174 19.7352 6.90196 19.7352C5.15218 19.7352 3.50033 18.8851 2.48324 17.4612ZM14.451 19.7352C13.4481 19.7352 12.4756 19.5227 11.5973 19.1175C11.8802 18.8419 12.1405 18.5399 12.3738 18.2134C13.3094 16.9035 13.8039 15.3603 13.8039 13.7506V13.6419C13.8039 12.2012 13.4004 10.7941 12.6368 9.57242L12.2105 8.89029C12.9222 8.64432 13.6733 8.51948 14.451 8.51948C17.8999 8.51948 20.7059 11.0351 20.7059 14.1273C20.7059 17.2195 17.8999 19.7352 14.451 19.7352Z" fill="#101010" fill-opacity="0.9"></path><path d="M18.1176 13.2646H19.4117V14.5587H18.1176V13.2646Z" fill="#101010" fill-opacity="0.9"></path></g><defs><clipPath id="clip0_17492_38393"><rect width="22" height="22" fill="white"></rect></clipPath></defs></svg> 