<?xml version="1.0" encoding="UTF-8"?> <svg xmlns="http://www.w3.org/2000/svg" width="22" height="22" viewBox="0 0 22 22" fill="none"><g clip-path="url(#clip0_17492_38395)"><path d="M20.9823 6.13455C20.2407 4.65136 19.1922 3.83447 18.03 3.83447H9.72185C6.50778 3.83447 3.78133 5.96166 2.87593 8.88196C2.39037 8.52959 1.70563 8.3081 0.774667 8.3081C0.346889 8.3081 0 8.65499 0 9.08277V12.9173C0 13.3451 0.346889 13.692 0.774667 13.692C1.70563 13.692 2.39044 13.4705 2.87593 13.1182C3.78133 16.0385 6.50778 18.1656 9.72185 18.1656H18.0299C19.1921 18.1656 20.2407 17.3488 20.9822 15.8655C21.6385 14.5529 22 12.825 22 11C22 9.17507 21.6385 7.44714 20.9823 6.13455ZM1.54926 12.0586V9.94144C2.19141 10.0988 2.55637 10.4705 2.55637 11C2.55637 11.5297 2.19141 11.9012 1.54926 12.0586ZM5.08156 14.232C5.3397 14.2963 5.60948 14.3311 5.88733 14.3311C6.31511 14.3311 6.662 13.9842 6.662 13.5564C6.662 13.1286 6.31511 12.7817 5.88733 12.7817C4.90489 12.7817 4.10563 11.9825 4.10563 11C4.10563 10.0176 4.90489 9.21833 5.88733 9.21833C6.31511 9.21833 6.662 8.87144 6.662 8.44366C6.662 8.01588 6.31511 7.66899 5.88733 7.66899C5.60948 7.66899 5.3397 7.70373 5.08156 7.7681C6.12178 6.32744 7.82763 5.38381 9.72193 5.38381H15.5176C15.3614 5.61084 15.2142 5.86129 15.0776 6.13455C14.4214 7.44714 14.0599 9.17507 14.0599 11C14.0599 12.825 14.4214 14.5529 15.0776 15.8655C15.2143 16.1388 15.3614 16.3891 15.5176 16.6163H9.72193C7.82763 16.6162 6.12178 15.6726 5.08156 14.232ZM18.0299 16.6162C16.8871 16.6162 15.6091 14.2144 15.6091 11C15.6091 7.78566 16.8871 5.38388 18.0299 5.38388C19.1727 5.38388 20.4507 7.78566 20.4507 11C20.4507 14.2144 19.1727 16.6162 18.0299 16.6162Z" fill="#101010" fill-opacity="0.9"></path><path d="M18.1211 7.89603C17.977 8.0401 17.8942 8.24003 17.8942 8.44373C17.8942 8.64751 17.977 8.84729 18.1211 8.99136C18.2652 9.13544 18.4651 9.2184 18.6688 9.2184C18.8725 9.2184 19.0724 9.13551 19.2165 8.99136C19.3613 8.84729 19.4435 8.64744 19.4435 8.44373C19.4435 8.24003 19.3613 8.04018 19.2165 7.89603C19.0725 7.75196 18.8725 7.66907 18.6688 7.66907C18.4651 7.66907 18.266 7.75188 18.1211 7.89603Z" fill="#101010" fill-opacity="0.9"></path><path d="M18.6687 12.7817C18.465 12.7817 18.2652 12.8646 18.121 13.0087C17.9769 13.1528 17.8941 13.3526 17.8941 13.5563C17.8941 13.76 17.9769 13.9599 18.121 14.104C18.2651 14.2481 18.465 14.331 18.6687 14.331C18.8724 14.331 19.0724 14.2481 19.2164 14.104C19.3612 13.96 19.4434 13.76 19.4434 13.5563C19.4434 13.3526 19.3612 13.1528 19.2164 13.0087C19.0724 12.8646 18.8724 12.7817 18.6687 12.7817Z" fill="#101010" fill-opacity="0.9"></path><path d="M18.1652 11C18.1652 10.7963 18.0831 10.5965 17.9382 10.4523C17.7942 10.3082 17.5951 10.2254 17.3906 10.2254C17.1869 10.2254 16.987 10.3082 16.8429 10.4523C16.6987 10.5964 16.6159 10.7963 16.6159 11C16.6159 11.2037 16.6987 11.4036 16.8429 11.5477C16.9869 11.6918 17.1869 11.7747 17.3906 11.7747C17.5951 11.7747 17.7941 11.6918 17.9382 11.5477C18.0831 11.4036 18.1652 11.2037 18.1652 11Z" fill="#101010" fill-opacity="0.9"></path></g><defs><clipPath id="clip0_17492_38395"><rect width="22" height="22" fill="white"></rect></clipPath></defs></svg> 