<?xml version="1.0" encoding="UTF-8"?> <svg xmlns="http://www.w3.org/2000/svg" width="22" height="22" viewBox="0 0 22 22" fill="none"><g clip-path="url(#clip0_17492_38407)"><path d="M18.6178 4.10482C18.4706 3.93333 18.2559 3.83467 18.0298 3.83467H10.0779L9.85536 0.719482C9.8264 0.314074 9.48906 0 9.08269 0H3.9701C3.54232 0 3.19543 0.346889 3.19543 0.774667C3.19543 1.20244 3.54232 1.54933 3.9701 1.54933H8.36143L8.52462 3.83467H5.24825C5.02218 3.83467 4.80751 3.93333 4.66032 4.10482C4.51321 4.27637 4.44832 4.50363 4.48262 4.72696L7.03892 21.3431C7.09714 21.721 7.42225 21.9999 7.80462 21.9999H15.4736C15.8559 21.9999 16.1811 21.721 16.2392 21.3431L18.7955 4.72696C18.8298 4.50363 18.7649 4.27637 18.6178 4.10482ZM17.1269 5.38393L16.1854 11.5036H10.6257L10.1885 5.38393H17.1269ZM8.63529 5.38393L9.0724 11.5036H7.09262L6.15114 5.38393H8.63529ZM14.809 20.4507H8.46914L7.33099 13.0529H9.18314L9.58825 18.7242C9.61736 19.1322 9.95736 19.4437 10.3601 19.4437C10.3786 19.4437 10.3973 19.443 10.4162 19.4417C10.8429 19.4113 11.1641 19.0406 11.1337 18.6139L10.7364 13.0529H15.9472L14.809 20.4507Z" fill="#101010" fill-opacity="0.9"></path></g><defs><clipPath id="clip0_17492_38407"><rect width="22" height="22" fill="white"></rect></clipPath></defs></svg> 